<svg width="119" height="61" viewBox="0 0 119 61" fill="none" xmlns="http://www.w3.org/2000/svg">
<g clip-path="url(#clip0)">
<path d="M11.76 28.82C11.76 22.4767 13.0983 17.49 15.775 13.86C18.4883 10.23 22.65 8.415 28.26 8.415C33.8333 8.415 37.9767 10.2483 40.69 13.915C43.4033 17.545 44.76 22.5133 44.76 28.82C44.76 35.1633 43.4033 40.1683 40.69 43.835C37.9767 47.465 33.8333 49.28 28.26 49.28C22.65 49.28 18.4883 47.465 15.775 43.835C13.0983 40.1683 11.76 35.1633 11.76 28.82ZM32.715 28.82C32.715 25.8867 32.4217 23.6867 31.835 22.22C31.2483 20.7167 30.0567 19.965 28.26 19.965C26.4267 19.965 25.2167 20.7167 24.63 22.22C24.0433 23.6867 23.75 25.8867 23.75 28.82C23.75 31.79 24.0433 34.0267 24.63 35.53C25.2167 36.9967 26.4267 37.73 28.26 37.73C30.0567 37.73 31.2483 36.9967 31.835 35.53C32.4217 34.0267 32.715 31.79 32.715 28.82Z" fill="#30D7BA"/>
<path d="M74.91 21.03C74.91 22.15 74.61 23.18 74.01 24.12C73.41 25.06 72.52 25.81 71.34 26.37C70.16 26.93 68.74 27.21 67.08 27.21V29.61H65.79V27.15C63.61 26.97 61.83 26.31 60.45 25.17C59.09 24.03 58.34 22.51 58.2 20.61H63.66C63.72 21.25 63.93 21.79 64.29 22.23C64.67 22.67 65.17 22.97 65.79 23.13V18.36C65.45 18.26 65.23 18.19 65.13 18.15C63.67 17.73 62.47 17.31 61.53 16.89C60.61 16.45 59.81 15.81 59.13 14.97C58.47 14.11 58.14 12.98 58.14 11.58C58.14 10.36 58.47 9.29 59.13 8.37C59.81 7.45 60.73 6.75 61.89 6.27C63.05 5.77 64.35 5.5 65.79 5.46V3H67.08V5.49C69.28 5.63 71.03 6.26 72.33 7.38C73.63 8.48 74.36 9.94 74.52 11.76H68.97C68.89 11.16 68.69 10.67 68.37 10.29C68.05 9.91 67.62 9.65 67.08 9.51V14.19L68.01 14.49C69.47 14.95 70.65 15.4 71.55 15.84C72.47 16.26 73.26 16.89 73.92 17.73C74.58 18.57 74.91 19.67 74.91 21.03ZM63.63 11.37C63.63 11.91 63.81 12.37 64.17 12.75C64.55 13.11 65.09 13.44 65.79 13.74V9.39C65.11 9.43 64.58 9.62 64.2 9.96C63.82 10.3 63.63 10.77 63.63 11.37ZM67.08 23.28C67.8 23.26 68.37 23.06 68.79 22.68C69.21 22.28 69.42 21.77 69.42 21.15C69.42 20.59 69.22 20.13 68.82 19.77C68.42 19.39 67.84 19.06 67.08 18.78V23.28Z" fill="#30D7BA"/>
<path d="M59.5195 47.9941V51H57.7617V42.4688H61.0898C61.7305 42.4688 62.293 42.5859 62.7773 42.8203C63.2656 43.0547 63.6406 43.3887 63.9023 43.8223C64.1641 44.252 64.2949 44.7422 64.2949 45.293C64.2949 46.1289 64.0078 46.7891 63.4336 47.2734C62.8633 47.7539 62.0723 47.9941 61.0605 47.9941H59.5195ZM59.5195 46.5703H61.0898C61.5547 46.5703 61.9082 46.4609 62.1504 46.2422C62.3965 46.0234 62.5195 45.7109 62.5195 45.3047C62.5195 44.8867 62.3965 44.5488 62.1504 44.291C61.9043 44.0332 61.5645 43.9004 61.1309 43.8926H59.5195V46.5703ZM68.3324 51.1172C67.4027 51.1172 66.6449 50.832 66.059 50.2617C65.477 49.6914 65.1859 48.9316 65.1859 47.9824V47.8184C65.1859 47.1816 65.309 46.6133 65.5551 46.1133C65.8012 45.6094 66.1488 45.2227 66.598 44.9531C67.0512 44.6797 67.5668 44.543 68.1449 44.543C69.0121 44.543 69.6937 44.8164 70.1898 45.3633C70.6898 45.9102 70.9398 46.6855 70.9398 47.6895V48.3809H66.9027C66.9574 48.7949 67.1215 49.127 67.3949 49.377C67.6723 49.627 68.0219 49.752 68.4437 49.752C69.0961 49.752 69.6059 49.5156 69.973 49.043L70.8051 49.9746C70.5512 50.334 70.2074 50.6152 69.7738 50.8184C69.3402 51.0176 68.8598 51.1172 68.3324 51.1172ZM68.1391 45.9141C67.8031 45.9141 67.5297 46.0273 67.3187 46.2539C67.1117 46.4805 66.9789 46.8047 66.9203 47.2266H69.2758V47.0918C69.268 46.7168 69.1664 46.4277 68.9711 46.2246C68.7758 46.0176 68.4984 45.9141 68.1391 45.9141ZM75.5691 46.248C75.3387 46.2168 75.1355 46.2012 74.9598 46.2012C74.3191 46.2012 73.8992 46.418 73.7 46.8516V51H72.0066V44.6602H73.6062L73.6531 45.416C73.993 44.834 74.4637 44.543 75.0652 44.543C75.2527 44.543 75.4285 44.5684 75.5926 44.6191L75.5691 46.248ZM77.0227 51.7324H75.7629L78.9035 42.4688H80.1633L77.0227 51.7324ZM85.7539 44.6602L85.8066 45.3691C86.2559 44.8184 86.8633 44.543 87.6289 44.543C88.4453 44.543 89.0059 44.8652 89.3105 45.5098C89.7559 44.8652 90.3906 44.543 91.2148 44.543C91.9023 44.543 92.4141 44.7441 92.75 45.1465C93.0859 45.5449 93.2539 46.1465 93.2539 46.9512V51H91.5547V46.957C91.5547 46.5977 91.4844 46.3359 91.3438 46.1719C91.2031 46.0039 90.9551 45.9199 90.5996 45.9199C90.0918 45.9199 89.7402 46.1621 89.5449 46.6465L89.5508 51H87.8574V46.9629C87.8574 46.5957 87.7852 46.3301 87.6406 46.166C87.4961 46.002 87.25 45.9199 86.9023 45.9199C86.4219 45.9199 86.0742 46.1191 85.8594 46.5176V51H84.166V44.6602H85.7539ZM94.3969 47.7715C94.3969 47.1426 94.518 46.582 94.7602 46.0898C95.0023 45.5977 95.35 45.2168 95.8031 44.9473C96.2602 44.6777 96.7895 44.543 97.391 44.543C98.2465 44.543 98.9437 44.8047 99.4828 45.3281C100.026 45.8516 100.329 46.5625 100.391 47.4609L100.403 47.8945C100.403 48.8672 100.131 49.6484 99.5883 50.2383C99.0453 50.8242 98.3168 51.1172 97.4027 51.1172C96.4887 51.1172 95.7582 50.8242 95.2113 50.2383C94.6684 49.6523 94.3969 48.8555 94.3969 47.8477V47.7715ZM96.0902 47.8945C96.0902 48.4961 96.2035 48.957 96.4301 49.2773C96.6566 49.5938 96.9809 49.752 97.4027 49.752C97.8129 49.752 98.1332 49.5957 98.3637 49.2832C98.5941 48.9668 98.7094 48.4629 98.7094 47.7715C98.7094 47.1816 98.5941 46.7246 98.3637 46.4004C98.1332 46.0762 97.809 45.9141 97.391 45.9141C96.977 45.9141 96.6566 46.0762 96.4301 46.4004C96.2035 46.7207 96.0902 47.2188 96.0902 47.8945ZM103.104 44.6602L103.157 45.3926C103.61 44.8262 104.218 44.543 104.979 44.543C105.651 44.543 106.151 44.7402 106.479 45.1348C106.807 45.5293 106.975 46.1191 106.983 46.9043V51H105.29V46.9453C105.29 46.5859 105.212 46.3262 105.055 46.166C104.899 46.002 104.639 45.9199 104.276 45.9199C103.8 45.9199 103.442 46.123 103.204 46.5293V51H101.511V44.6602H103.104ZM110.4 43.1016V44.6602H111.484V45.9023H110.4V49.0664C110.4 49.3008 110.445 49.4688 110.534 49.5703C110.624 49.6719 110.796 49.7227 111.05 49.7227C111.237 49.7227 111.404 49.709 111.548 49.6816V50.9648C111.216 51.0664 110.874 51.1172 110.523 51.1172C109.335 51.1172 108.73 50.5176 108.706 49.3184V45.9023H107.78V44.6602H108.706V43.1016H110.4ZM114.179 45.3516C114.629 44.8125 115.193 44.543 115.873 44.543C117.248 44.543 117.945 45.3418 117.964 46.9395V51H116.271V46.9863C116.271 46.623 116.193 46.3555 116.037 46.1836C115.88 46.0078 115.621 45.9199 115.257 45.9199C114.761 45.9199 114.402 46.1113 114.179 46.4941V51H112.486V42H114.179V45.3516Z" fill="#5C5C5C"/>
</g>
<defs>
<clipPath id="clip0">
<rect width="119" height="61" fill="white"/>
</clipPath>
</defs>
</svg>
