<svg width="141" height="61" viewBox="0 0 141 61" fill="none" xmlns="http://www.w3.org/2000/svg">
<g clip-path="url(#clip0)">
<path d="M10.55 20.735V9.295H29.195V49.5H16.38V20.735H10.55ZM33.9278 28.82C33.9278 22.4767 35.2661 17.49 37.9428 13.86C40.6561 10.23 44.8178 8.415 50.4278 8.415C56.0011 8.415 60.1444 10.2483 62.8578 13.915C65.5711 17.545 66.9278 22.5133 66.9278 28.82C66.9278 35.1633 65.5711 40.1683 62.8578 43.835C60.1444 47.465 56.0011 49.28 50.4278 49.28C44.8178 49.28 40.6561 47.465 37.9428 43.835C35.2661 40.1683 33.9278 35.1633 33.9278 28.82ZM54.8828 28.82C54.8828 25.8867 54.5894 23.6867 54.0028 22.22C53.4161 20.7167 52.2244 19.965 50.4278 19.965C48.5944 19.965 47.3844 20.7167 46.7978 22.22C46.2111 23.6867 45.9178 25.8867 45.9178 28.82C45.9178 31.79 46.2111 34.0267 46.7978 35.53C47.3844 36.9967 48.5944 37.73 50.4278 37.73C52.2244 37.73 53.4161 36.9967 54.0028 35.53C54.5894 34.0267 54.8828 31.79 54.8828 28.82Z" fill="#30D7BA"/>
<path d="M96.91 21.03C96.91 22.15 96.61 23.18 96.01 24.12C95.41 25.06 94.52 25.81 93.34 26.37C92.16 26.93 90.74 27.21 89.08 27.21V29.61H87.79V27.15C85.61 26.97 83.83 26.31 82.45 25.17C81.09 24.03 80.34 22.51 80.2 20.61H85.66C85.72 21.25 85.93 21.79 86.29 22.23C86.67 22.67 87.17 22.97 87.79 23.13V18.36C87.45 18.26 87.23 18.19 87.13 18.15C85.67 17.73 84.47 17.31 83.53 16.89C82.61 16.45 81.81 15.81 81.13 14.97C80.47 14.11 80.14 12.98 80.14 11.58C80.14 10.36 80.47 9.29 81.13 8.37C81.81 7.45 82.73 6.75 83.89 6.27C85.05 5.77 86.35 5.5 87.79 5.46V3H89.08V5.49C91.28 5.63 93.03 6.26 94.33 7.38C95.63 8.48 96.36 9.94 96.52 11.76H90.97C90.89 11.16 90.69 10.67 90.37 10.29C90.05 9.91 89.62 9.65 89.08 9.51V14.19L90.01 14.49C91.47 14.95 92.65 15.4 93.55 15.84C94.47 16.26 95.26 16.89 95.92 17.73C96.58 18.57 96.91 19.67 96.91 21.03ZM85.63 11.37C85.63 11.91 85.81 12.37 86.17 12.75C86.55 13.11 87.09 13.44 87.79 13.74V9.39C87.11 9.43 86.58 9.62 86.2 9.96C85.82 10.3 85.63 10.77 85.63 11.37ZM89.08 23.28C89.8 23.26 90.37 23.06 90.79 22.68C91.21 22.28 91.42 21.77 91.42 21.15C91.42 20.59 91.22 20.13 90.82 19.77C90.42 19.39 89.84 19.06 89.08 18.78V23.28Z" fill="#30D7BA"/>
<path d="M81.5195 47.9941V51H79.7617V42.4688H83.0898C83.7305 42.4688 84.293 42.5859 84.7773 42.8203C85.2656 43.0547 85.6406 43.3887 85.9023 43.8223C86.1641 44.252 86.2949 44.7422 86.2949 45.293C86.2949 46.1289 86.0078 46.7891 85.4336 47.2734C84.8633 47.7539 84.0723 47.9941 83.0605 47.9941H81.5195ZM81.5195 46.5703H83.0898C83.5547 46.5703 83.9082 46.4609 84.1504 46.2422C84.3965 46.0234 84.5195 45.7109 84.5195 45.3047C84.5195 44.8867 84.3965 44.5488 84.1504 44.291C83.9043 44.0332 83.5645 43.9004 83.1309 43.8926H81.5195V46.5703ZM90.3324 51.1172C89.4027 51.1172 88.6449 50.832 88.059 50.2617C87.477 49.6914 87.1859 48.9316 87.1859 47.9824V47.8184C87.1859 47.1816 87.309 46.6133 87.5551 46.1133C87.8012 45.6094 88.1488 45.2227 88.598 44.9531C89.0512 44.6797 89.5668 44.543 90.1449 44.543C91.0121 44.543 91.6937 44.8164 92.1898 45.3633C92.6898 45.9102 92.9398 46.6855 92.9398 47.6895V48.3809H88.9027C88.9574 48.7949 89.1215 49.127 89.3949 49.377C89.6723 49.627 90.0219 49.752 90.4437 49.752C91.0961 49.752 91.6059 49.5156 91.973 49.043L92.8051 49.9746C92.5512 50.334 92.2074 50.6152 91.7738 50.8184C91.3402 51.0176 90.8598 51.1172 90.3324 51.1172ZM90.1391 45.9141C89.8031 45.9141 89.5297 46.0273 89.3187 46.2539C89.1117 46.4805 88.9789 46.8047 88.9203 47.2266H91.2758V47.0918C91.268 46.7168 91.1664 46.4277 90.9711 46.2246C90.7758 46.0176 90.4984 45.9141 90.1391 45.9141ZM97.5691 46.248C97.3387 46.2168 97.1355 46.2012 96.9598 46.2012C96.3191 46.2012 95.8992 46.418 95.7 46.8516V51H94.0066V44.6602H95.6062L95.6531 45.416C95.993 44.834 96.4637 44.543 97.0652 44.543C97.2527 44.543 97.4285 44.5684 97.5926 44.6191L97.5691 46.248ZM99.0227 51.7324H97.7629L100.904 42.4688H102.163L99.0227 51.7324ZM107.754 44.6602L107.807 45.3691C108.256 44.8184 108.863 44.543 109.629 44.543C110.445 44.543 111.006 44.8652 111.311 45.5098C111.756 44.8652 112.391 44.543 113.215 44.543C113.902 44.543 114.414 44.7441 114.75 45.1465C115.086 45.5449 115.254 46.1465 115.254 46.9512V51H113.555V46.957C113.555 46.5977 113.484 46.3359 113.344 46.1719C113.203 46.0039 112.955 45.9199 112.6 45.9199C112.092 45.9199 111.74 46.1621 111.545 46.6465L111.551 51H109.857V46.9629C109.857 46.5957 109.785 46.3301 109.641 46.166C109.496 46.002 109.25 45.9199 108.902 45.9199C108.422 45.9199 108.074 46.1191 107.859 46.5176V51H106.166V44.6602H107.754ZM116.397 47.7715C116.397 47.1426 116.518 46.582 116.76 46.0898C117.002 45.5977 117.35 45.2168 117.803 44.9473C118.26 44.6777 118.789 44.543 119.391 44.543C120.246 44.543 120.944 44.8047 121.483 45.3281C122.026 45.8516 122.329 46.5625 122.391 47.4609L122.403 47.8945C122.403 48.8672 122.131 49.6484 121.588 50.2383C121.045 50.8242 120.317 51.1172 119.403 51.1172C118.489 51.1172 117.758 50.8242 117.211 50.2383C116.668 49.6523 116.397 48.8555 116.397 47.8477V47.7715ZM118.09 47.8945C118.09 48.4961 118.204 48.957 118.43 49.2773C118.657 49.5938 118.981 49.752 119.403 49.752C119.813 49.752 120.133 49.5957 120.364 49.2832C120.594 48.9668 120.709 48.4629 120.709 47.7715C120.709 47.1816 120.594 46.7246 120.364 46.4004C120.133 46.0762 119.809 45.9141 119.391 45.9141C118.977 45.9141 118.657 46.0762 118.43 46.4004C118.204 46.7207 118.09 47.2188 118.09 47.8945ZM125.104 44.6602L125.157 45.3926C125.61 44.8262 126.218 44.543 126.979 44.543C127.651 44.543 128.151 44.7402 128.479 45.1348C128.807 45.5293 128.975 46.1191 128.983 46.9043V51H127.29V46.9453C127.29 46.5859 127.212 46.3262 127.055 46.166C126.899 46.002 126.639 45.9199 126.276 45.9199C125.8 45.9199 125.442 46.123 125.204 46.5293V51H123.511V44.6602H125.104ZM132.4 43.1016V44.6602H133.484V45.9023H132.4V49.0664C132.4 49.3008 132.445 49.4688 132.534 49.5703C132.624 49.6719 132.796 49.7227 133.05 49.7227C133.237 49.7227 133.404 49.709 133.548 49.6816V50.9648C133.216 51.0664 132.874 51.1172 132.523 51.1172C131.335 51.1172 130.73 50.5176 130.706 49.3184V45.9023H129.78V44.6602H130.706V43.1016H132.4ZM136.179 45.3516C136.629 44.8125 137.193 44.543 137.873 44.543C139.248 44.543 139.945 45.3418 139.964 46.9395V51H138.271V46.9863C138.271 46.623 138.193 46.3555 138.037 46.1836C137.88 46.0078 137.621 45.9199 137.257 45.9199C136.761 45.9199 136.402 46.1113 136.179 46.4941V51H134.486V42H136.179V45.3516Z" fill="#5C5C5C"/>
</g>
<defs>
<clipPath id="clip0">
<rect width="141" height="61" fill="white"/>
</clipPath>
</defs>
</svg>
