<svg width="42" height="41" viewBox="0 0 42 41" fill="none" xmlns="http://www.w3.org/2000/svg">
<path d="M37.645 10.1853C36.4202 10.7136 35.0873 11.0939 33.7144 11.242C35.1398 10.3952 36.2072 9.05736 36.7164 7.47954C35.3788 8.27521 33.9136 8.83315 32.3855 9.12861C31.7469 8.44587 30.9745 7.90197 30.1165 7.5308C29.2585 7.15963 28.3332 6.96914 27.3983 6.97121C23.6159 6.97121 20.5739 10.0372 20.5739 13.7996C20.5739 14.328 20.6379 14.8563 20.742 15.3647C15.0783 15.0685 10.027 12.3627 6.66887 8.22002C6.05697 9.26516 5.73632 10.4552 5.74026 11.6663C5.74026 14.0358 6.94505 16.1251 8.78224 17.3539C7.69955 17.3113 6.64222 17.0137 5.69624 16.4854V16.5694C5.69624 19.8876 8.04176 22.6374 11.1678 23.2698C10.5808 23.4222 9.97704 23.5002 9.37062 23.5019C8.92633 23.5019 8.50606 23.4579 8.08178 23.3979C8.94634 26.1036 11.464 28.0689 14.4619 28.1329C12.1164 29.9701 9.17849 31.0508 5.98843 31.0508C5.41605 31.0508 4.88771 31.0308 4.33936 30.9668C7.36532 32.908 10.9556 34.0288 14.8222 34.0288C27.3743 34.0288 34.2428 23.63 34.2428 14.6042C34.2428 14.308 34.2428 14.0118 34.2227 13.7156C35.5516 12.743 36.7164 11.5382 37.645 10.1853Z" fill="white"/>
</svg>
